<mxfile host="Electron" modified="2024-04-20T22:03:46.731Z" agent="Mozilla/5.0 (Windows NT 10.0; Win64; x64) AppleWebKit/537.36 (KHTML, like Gecko) draw.io/24.2.5 Chrome/120.0.6099.109 Electron/28.1.0 Safari/537.36" etag="qDu709E_L4Vl_l0ZXxde" version="24.2.5" type="device">
  <diagram name="Página-1" id="ZIZXABrcDW0JbREKs7rB">
    <mxGraphModel dx="1420" dy="830" grid="1" gridSize="10" guides="1" tooltips="1" connect="1" arrows="1" fold="1" page="1" pageScale="1" pageWidth="827" pageHeight="1169" background="#CCE5FF" math="0" shadow="0">
      <root>
        <mxCell id="0" />
        <mxCell id="1" parent="0" />
        <mxCell id="qbTBAQ023xAR1wL4dDzm-1" value="&lt;b style=&quot;font-size: 16px;&quot;&gt;&lt;font style=&quot;font-size: 16px;&quot; color=&quot;#000000&quot; face=&quot;Comic Sans MS&quot;&gt;5 Hacer un programa para que el usuario ingrese dos números y luego el programa muestre por pantalla los números entre el menor y el mayor de ambos.&amp;nbsp;&lt;/font&gt;&lt;/b&gt;&lt;div&gt;&lt;b style=&quot;font-size: 16px;&quot;&gt;&lt;font style=&quot;font-size: 16px;&quot; color=&quot;#000000&quot; face=&quot;Comic Sans MS&quot;&gt;Ejemplo, si el usuario ingresa 3 y 15, se mostrarán los números entre el 3 y el 15; y si el usuario ingresa 25 y 8, se mostrarán los números entre el 8 y el 25.&lt;/font&gt;&lt;/b&gt;&lt;/div&gt;" style="text;whiteSpace=wrap;html=1;fontFamily=Architects Daughter;fontSource=https%3A%2F%2Ffonts.googleapis.com%2Fcss%3Ffamily%3DArchitects%2BDaughter;" vertex="1" parent="1">
          <mxGeometry x="50" y="10" width="759" height="100" as="geometry" />
        </mxCell>
        <mxCell id="qbTBAQ023xAR1wL4dDzm-27" value="" style="group;aspect=fixed;strokeWidth=2;strokeColor=#080808;fillColor=none;container=0;" vertex="1" connectable="0" parent="1">
          <mxGeometry x="258" y="630" width="250" height="250" as="geometry" />
        </mxCell>
        <mxCell id="qbTBAQ023xAR1wL4dDzm-39" value="" style="line;strokeWidth=2;direction=south;html=1;hachureGap=4;fontFamily=Architects Daughter;fontSource=https://fonts.googleapis.com/css?family=Architects+Daughter;strokeColor=#000000;container=0;" vertex="1" parent="1">
          <mxGeometry x="378" y="280" width="10" height="30" as="geometry" />
        </mxCell>
        <mxCell id="qbTBAQ023xAR1wL4dDzm-40" value="" style="line;strokeWidth=2;direction=south;html=1;hachureGap=4;fontFamily=Architects Daughter;fontSource=https://fonts.googleapis.com/css?family=Architects+Daughter;strokeColor=#000000;container=0;" vertex="1" parent="1">
          <mxGeometry x="378" y="210" width="10" height="30" as="geometry" />
        </mxCell>
        <mxCell id="qbTBAQ023xAR1wL4dDzm-41" value="" style="line;strokeWidth=2;direction=south;html=1;hachureGap=4;fontFamily=Architects Daughter;fontSource=https://fonts.googleapis.com/css?family=Architects+Daughter;strokeColor=#000000;container=0;" vertex="1" parent="1">
          <mxGeometry x="378" y="350" width="10" height="30" as="geometry" />
        </mxCell>
        <mxCell id="qbTBAQ023xAR1wL4dDzm-42" value="" style="line;strokeWidth=2;direction=south;html=1;hachureGap=4;fontFamily=Architects Daughter;fontSource=https://fonts.googleapis.com/css?family=Architects+Daughter;strokeColor=#000000;container=0;" vertex="1" parent="1">
          <mxGeometry x="255" y="541" width="10" height="39" as="geometry" />
        </mxCell>
        <mxCell id="qbTBAQ023xAR1wL4dDzm-44" value="" style="line;strokeWidth=2;direction=south;html=1;hachureGap=4;fontFamily=Architects Daughter;fontSource=https://fonts.googleapis.com/css?family=Architects+Daughter;strokeColor=#000000;container=0;" vertex="1" parent="1">
          <mxGeometry x="378" y="580" width="10" height="50" as="geometry" />
        </mxCell>
        <mxCell id="qbTBAQ023xAR1wL4dDzm-45" value="" style="line;strokeWidth=2;direction=south;html=1;hachureGap=4;fontFamily=Architects Daughter;fontSource=https://fonts.googleapis.com/css?family=Architects+Daughter;strokeColor=#000000;container=0;" vertex="1" parent="1">
          <mxGeometry x="501" y="541" width="10" height="39" as="geometry" />
        </mxCell>
        <mxCell id="qbTBAQ023xAR1wL4dDzm-46" value="" style="line;strokeWidth=2;direction=south;html=1;hachureGap=4;fontFamily=Architects Daughter;fontSource=https://fonts.googleapis.com/css?family=Architects+Daughter;strokeColor=#000000;container=0;" vertex="1" parent="1">
          <mxGeometry x="501" y="430" width="10" height="60" as="geometry" />
        </mxCell>
        <mxCell id="qbTBAQ023xAR1wL4dDzm-47" value="" style="line;strokeWidth=2;direction=south;html=1;hachureGap=4;fontFamily=Architects Daughter;fontSource=https://fonts.googleapis.com/css?family=Architects+Daughter;strokeColor=#000000;container=0;" vertex="1" parent="1">
          <mxGeometry x="257" y="430" width="10" height="60" as="geometry" />
        </mxCell>
        <mxCell id="qbTBAQ023xAR1wL4dDzm-49" value="" style="line;strokeWidth=2;html=1;perimeter=backbonePerimeter;points=[];outlineConnect=0;hachureGap=4;fontFamily=Architects Daughter;fontSource=https://fonts.googleapis.com/css?family=Architects+Daughter;strokeColor=#000000;container=0;" vertex="1" parent="1">
          <mxGeometry x="260" y="425" width="67" height="10" as="geometry" />
        </mxCell>
        <mxCell id="qbTBAQ023xAR1wL4dDzm-50" value="" style="line;strokeWidth=2;html=1;perimeter=backbonePerimeter;points=[];outlineConnect=0;hachureGap=4;fontFamily=Architects Daughter;fontSource=https://fonts.googleapis.com/css?family=Architects+Daughter;strokeColor=#000000;container=0;" vertex="1" parent="1">
          <mxGeometry x="437" y="426" width="73" height="10" as="geometry" />
        </mxCell>
        <mxCell id="qbTBAQ023xAR1wL4dDzm-52" value="" style="line;strokeWidth=2;html=1;perimeter=backbonePerimeter;points=[];outlineConnect=0;hachureGap=4;fontFamily=Architects Daughter;fontSource=https://fonts.googleapis.com/css?family=Architects+Daughter;strokeColor=#000000;container=0;" vertex="1" parent="1">
          <mxGeometry x="257" y="577" width="253" height="10" as="geometry" />
        </mxCell>
        <mxCell id="qbTBAQ023xAR1wL4dDzm-57" value="" style="line;strokeWidth=2;direction=south;html=1;hachureGap=4;fontFamily=Architects Daughter;fontSource=https://fonts.googleapis.com/css?family=Architects+Daughter;strokeColor=#000000;container=0;" vertex="1" parent="1">
          <mxGeometry x="378.5" y="880" width="10" height="40" as="geometry" />
        </mxCell>
        <mxCell id="qbTBAQ023xAR1wL4dDzm-59" value="&lt;b&gt;&lt;font color=&quot;#000000&quot; style=&quot;font-size: 14px;&quot; face=&quot;Comic Sans MS&quot;&gt;V&lt;/font&gt;&lt;/b&gt;" style="text;strokeColor=none;align=center;fillColor=none;html=1;verticalAlign=middle;whiteSpace=wrap;rounded=0;fontFamily=Architects Daughter;fontSource=https%3A%2F%2Ffonts.googleapis.com%2Fcss%3Ffamily%3DArchitects%2BDaughter;container=0;" vertex="1" parent="1">
          <mxGeometry x="244" y="406" width="40" height="30" as="geometry" />
        </mxCell>
        <mxCell id="qbTBAQ023xAR1wL4dDzm-60" value="&lt;b&gt;&lt;font color=&quot;#000000&quot; style=&quot;font-size: 14px;&quot; face=&quot;Comic Sans MS&quot;&gt;F&lt;/font&gt;&lt;/b&gt;" style="text;strokeColor=none;align=center;fillColor=none;html=1;verticalAlign=middle;whiteSpace=wrap;rounded=0;fontFamily=Architects Daughter;fontSource=https://fonts.googleapis.com/css?family=Architects+Daughter;container=0;" vertex="1" parent="1">
          <mxGeometry x="479" y="402" width="50" height="40" as="geometry" />
        </mxCell>
        <mxCell id="qbTBAQ023xAR1wL4dDzm-2" value="" style="strokeWidth=2;html=1;shape=mxgraph.flowchart.start_2;whiteSpace=wrap;rounded=0;labelBackgroundColor=none;strokeColor=#000000;align=center;verticalAlign=middle;fontFamily=Helvetica;fontSize=12;fontColor=default;fillColor=#d5e8d4;container=0;" vertex="1" parent="1">
          <mxGeometry x="360" y="160" width="46" height="50" as="geometry" />
        </mxCell>
        <mxCell id="qbTBAQ023xAR1wL4dDzm-4" value="&lt;b&gt;&lt;font style=&quot;font-size: 21px;&quot; color=&quot;#000000&quot; face=&quot;Comic Sans MS&quot;&gt;I&lt;/font&gt;&lt;/b&gt;" style="text;strokeColor=none;align=center;fillColor=none;html=1;verticalAlign=middle;whiteSpace=wrap;rounded=0;fontFamily=Architects Daughter;fontSource=https%3A%2F%2Ffonts.googleapis.com%2Fcss%3Ffamily%3DArchitects%2BDaughter;container=0;" vertex="1" parent="1">
          <mxGeometry x="363" y="165" width="40" height="40" as="geometry" />
        </mxCell>
        <mxCell id="qbTBAQ023xAR1wL4dDzm-3" value="" style="strokeWidth=2;html=1;shape=mxgraph.flowchart.start_2;whiteSpace=wrap;rounded=0;labelBackgroundColor=none;strokeColor=#000000;align=center;verticalAlign=middle;fontFamily=Helvetica;fontSize=12;fontColor=default;fillColor=#d5e8d4;container=0;" vertex="1" parent="1">
          <mxGeometry x="360" y="920" width="46" height="50" as="geometry" />
        </mxCell>
        <mxCell id="qbTBAQ023xAR1wL4dDzm-5" value="&lt;b&gt;&lt;font style=&quot;font-size: 21px;&quot; color=&quot;#000000&quot; face=&quot;Comic Sans MS&quot;&gt;F&lt;/font&gt;&lt;/b&gt;" style="text;strokeColor=none;align=center;fillColor=none;html=1;verticalAlign=middle;whiteSpace=wrap;rounded=0;fontFamily=Architects Daughter;fontSource=https://fonts.googleapis.com/css?family=Architects+Daughter;container=0;" vertex="1" parent="1">
          <mxGeometry x="363" y="925" width="40" height="40" as="geometry" />
        </mxCell>
        <mxCell id="qbTBAQ023xAR1wL4dDzm-8" value="" style="rounded=0;whiteSpace=wrap;html=1;labelBackgroundColor=none;strokeColor=#0f100e;strokeWidth=2;align=center;verticalAlign=middle;fontFamily=Helvetica;fontSize=12;fontColor=default;fillColor=#d5e8d4;container=0;" vertex="1" parent="1">
          <mxGeometry x="265" y="240" width="236" height="40" as="geometry" />
        </mxCell>
        <mxCell id="qbTBAQ023xAR1wL4dDzm-9" value="&lt;font size=&quot;1&quot; face=&quot;Comic Sans MS&quot; color=&quot;#000000&quot;&gt;&lt;b style=&quot;font-size: 15px;&quot;&gt;int num1, num2, max, menor&lt;/b&gt;&lt;/font&gt;" style="text;strokeColor=none;align=center;fillColor=none;html=1;verticalAlign=middle;whiteSpace=wrap;rounded=0;fontFamily=Architects Daughter;fontSource=https%3A%2F%2Ffonts.googleapis.com%2Fcss%3Ffamily%3DArchitects%2BDaughter;container=0;" vertex="1" parent="1">
          <mxGeometry x="279" y="250" width="212" height="20" as="geometry" />
        </mxCell>
        <mxCell id="qbTBAQ023xAR1wL4dDzm-14" value="" style="shape=trapezoid;perimeter=trapezoidPerimeter;whiteSpace=wrap;html=1;fixedSize=1;rounded=0;labelBackgroundColor=none;strokeColor=#121211;strokeWidth=2;align=center;verticalAlign=middle;fontFamily=Helvetica;fontSize=12;fontColor=default;fillColor=#d5e8d4;direction=west;container=0;" vertex="1" parent="1">
          <mxGeometry x="303" y="310" width="160" height="40" as="geometry">
            <mxRectangle x="-1020" y="-650" width="50" height="40" as="alternateBounds" />
          </mxGeometry>
        </mxCell>
        <mxCell id="qbTBAQ023xAR1wL4dDzm-15" value="&lt;b&gt;&lt;font color=&quot;#000000&quot; style=&quot;font-size: 16px;&quot; face=&quot;Comic Sans MS&quot;&gt;num1, num2&lt;/font&gt;&lt;/b&gt;" style="text;strokeColor=none;align=center;fillColor=none;html=1;verticalAlign=middle;whiteSpace=wrap;rounded=0;fontFamily=Architects Daughter;fontSource=https%3A%2F%2Ffonts.googleapis.com%2Fcss%3Ffamily%3DArchitects%2BDaughter;container=0;" vertex="1" parent="1">
          <mxGeometry x="323" y="315" width="120" height="30" as="geometry" />
        </mxCell>
        <mxCell id="qbTBAQ023xAR1wL4dDzm-13" value="" style="rhombus;whiteSpace=wrap;html=1;rounded=0;labelBackgroundColor=none;strokeColor=#0F140C;strokeWidth=2;align=center;verticalAlign=middle;fontFamily=Helvetica;fontSize=12;fontColor=default;fillColor=#d5e8d4;container=0;" vertex="1" parent="1">
          <mxGeometry x="328" y="380" width="110" height="100" as="geometry" />
        </mxCell>
        <mxCell id="qbTBAQ023xAR1wL4dDzm-19" value="&lt;b style=&quot;font-size: 15px;&quot;&gt;&lt;font color=&quot;#000000&quot; style=&quot;font-size: 15px;&quot; face=&quot;Comic Sans MS&quot;&gt;num1&lt;/font&gt;&lt;/b&gt;&lt;div style=&quot;font-size: 15px;&quot;&gt;&lt;b style=&quot;background-color: initial;&quot;&gt;&lt;font color=&quot;#000000&quot; style=&quot;font-size: 15px;&quot; face=&quot;Comic Sans MS&quot;&gt;&amp;gt;&lt;/font&gt;&lt;/b&gt;&lt;div&gt;&lt;div&gt;&lt;b&gt;&lt;font color=&quot;#000000&quot; style=&quot;font-size: 15px;&quot; face=&quot;Comic Sans MS&quot;&gt;num2&lt;/font&gt;&lt;/b&gt;&lt;/div&gt;&lt;/div&gt;&lt;/div&gt;" style="text;strokeColor=none;align=center;fillColor=none;html=1;verticalAlign=middle;whiteSpace=wrap;rounded=0;fontFamily=Architects Daughter;fontSource=https://fonts.googleapis.com/css?family=Architects+Daughter;container=0;" vertex="1" parent="1">
          <mxGeometry x="359" y="399" width="50" height="60" as="geometry" />
        </mxCell>
        <mxCell id="qbTBAQ023xAR1wL4dDzm-21" value="" style="rounded=0;whiteSpace=wrap;html=1;labelBackgroundColor=none;strokeColor=#0f100e;strokeWidth=2;align=center;verticalAlign=middle;fontFamily=Helvetica;fontSize=12;fontColor=default;fillColor=#d5e8d4;container=0;" vertex="1" parent="1">
          <mxGeometry x="190" y="491" width="140" height="50" as="geometry" />
        </mxCell>
        <mxCell id="qbTBAQ023xAR1wL4dDzm-23" value="&lt;b&gt;&lt;font style=&quot;font-size: 15px;&quot; color=&quot;#000000&quot; face=&quot;Comic Sans MS&quot;&gt;max = num1&lt;/font&gt;&lt;/b&gt;&lt;div&gt;&lt;b&gt;&lt;font style=&quot;font-size: 15px;&quot; color=&quot;#000000&quot; face=&quot;Comic Sans MS&quot;&gt;menor = num2&lt;/font&gt;&lt;/b&gt;&lt;/div&gt;" style="text;strokeColor=none;align=center;fillColor=none;html=1;verticalAlign=middle;whiteSpace=wrap;rounded=0;fontFamily=Architects Daughter;fontSource=https%3A%2F%2Ffonts.googleapis.com%2Fcss%3Ffamily%3DArchitects%2BDaughter;container=0;" vertex="1" parent="1">
          <mxGeometry x="200" y="490" width="120" height="50" as="geometry" />
        </mxCell>
        <mxCell id="qbTBAQ023xAR1wL4dDzm-22" value="" style="rounded=0;whiteSpace=wrap;html=1;labelBackgroundColor=none;strokeColor=#0f100e;strokeWidth=2;align=center;verticalAlign=middle;fontFamily=Helvetica;fontSize=12;fontColor=default;fillColor=#d5e8d4;container=0;" vertex="1" parent="1">
          <mxGeometry x="430" y="491" width="140" height="50" as="geometry" />
        </mxCell>
        <mxCell id="qbTBAQ023xAR1wL4dDzm-24" value="&lt;b&gt;&lt;font style=&quot;font-size: 15px;&quot; color=&quot;#000000&quot; face=&quot;Comic Sans MS&quot;&gt;max = num2&lt;/font&gt;&lt;/b&gt;&lt;div&gt;&lt;b&gt;&lt;font style=&quot;font-size: 15px;&quot; color=&quot;#000000&quot; face=&quot;Comic Sans MS&quot;&gt;menor = num1&lt;/font&gt;&lt;/b&gt;&lt;/div&gt;" style="text;strokeColor=none;align=center;fillColor=none;html=1;verticalAlign=middle;whiteSpace=wrap;rounded=0;fontFamily=Architects Daughter;fontSource=https://fonts.googleapis.com/css?family=Architects+Daughter;container=0;" vertex="1" parent="1">
          <mxGeometry x="440" y="491" width="120" height="50" as="geometry" />
        </mxCell>
        <mxCell id="qbTBAQ023xAR1wL4dDzm-28" value="" style="whiteSpace=wrap;html=1;aspect=fixed;rounded=0;labelBackgroundColor=none;strokeColor=#1A1A1A;strokeWidth=3;align=center;verticalAlign=middle;fontFamily=Helvetica;fontSize=12;fontColor=default;fillColor=#d5e8d4;container=0;" vertex="1" parent="1">
          <mxGeometry x="258" y="630" width="250" height="250" as="geometry" />
        </mxCell>
        <mxCell id="qbTBAQ023xAR1wL4dDzm-29" value="" style="edgeStyle=none;orthogonalLoop=1;jettySize=auto;html=1;rounded=0;strokeColor=#000000;fontFamily=Helvetica;fontSize=12;fontColor=default;fillColor=#B2C9AB;startArrow=none;startFill=0;endArrow=none;endFill=0;endSize=7;strokeWidth=2;" edge="1" parent="1">
          <mxGeometry width="80" relative="1" as="geometry">
            <mxPoint x="508" y="670.3225806451613" as="sourcePoint" />
            <mxPoint x="258" y="670.3225806451613" as="targetPoint" />
            <Array as="points" />
          </mxGeometry>
        </mxCell>
        <mxCell id="qbTBAQ023xAR1wL4dDzm-30" value="&lt;b&gt;&lt;font style=&quot;font-size: 18px;&quot; color=&quot;#000000&quot; face=&quot;Comic Sans MS&quot;&gt;menor &amp;lt;= max&lt;/font&gt;&lt;/b&gt;" style="text;strokeColor=none;align=center;fillColor=none;html=1;verticalAlign=middle;whiteSpace=wrap;rounded=0;fontFamily=Architects Daughter;fontSource=https%3A%2F%2Ffonts.googleapis.com%2Fcss%3Ffamily%3DArchitects%2BDaughter;container=0;" vertex="1" parent="1">
          <mxGeometry x="313" y="636" width="140" height="30" as="geometry" />
        </mxCell>
        <mxCell id="qbTBAQ023xAR1wL4dDzm-43" value="" style="line;strokeWidth=2;direction=south;html=1;hachureGap=4;fontFamily=Architects Daughter;fontSource=https://fonts.googleapis.com/css?family=Architects+Daughter;strokeColor=#000000;container=0;" vertex="1" parent="1">
          <mxGeometry x="378" y="750" width="10" height="40" as="geometry" />
        </mxCell>
        <mxCell id="qbTBAQ023xAR1wL4dDzm-31" value="" style="shape=trapezoid;perimeter=trapezoidPerimeter;whiteSpace=wrap;html=1;fixedSize=1;rounded=0;labelBackgroundColor=none;strokeColor=#0F140C;strokeWidth=2;align=center;verticalAlign=middle;fontFamily=Helvetica;fontSize=12;fontColor=default;fillColor=#d5e8d4;container=0;" vertex="1" parent="1">
          <mxGeometry x="323" y="710" width="120" height="40" as="geometry" />
        </mxCell>
        <mxCell id="qbTBAQ023xAR1wL4dDzm-33" value="&lt;b&gt;&lt;font style=&quot;font-size: 17px;&quot; color=&quot;#000000&quot; face=&quot;Comic Sans MS&quot;&gt;menor&lt;/font&gt;&lt;/b&gt;" style="text;strokeColor=none;align=center;fillColor=none;html=1;verticalAlign=middle;whiteSpace=wrap;rounded=0;fontFamily=Architects Daughter;fontSource=https%3A%2F%2Ffonts.googleapis.com%2Fcss%3Ffamily%3DArchitects%2BDaughter;container=0;" vertex="1" parent="1">
          <mxGeometry x="328" y="710" width="110" height="40" as="geometry" />
        </mxCell>
        <mxCell id="qbTBAQ023xAR1wL4dDzm-32" value="" style="rounded=0;whiteSpace=wrap;html=1;labelBackgroundColor=none;strokeColor=#0f100e;strokeWidth=2;align=center;verticalAlign=middle;fontFamily=Helvetica;fontSize=12;fontColor=default;fillColor=#d5e8d4;container=0;" vertex="1" parent="1">
          <mxGeometry x="327" y="790" width="110" height="40" as="geometry" />
        </mxCell>
        <mxCell id="qbTBAQ023xAR1wL4dDzm-37" value="&lt;b&gt;&lt;font style=&quot;font-size: 17px;&quot; color=&quot;#000000&quot; face=&quot;Comic Sans MS&quot;&gt;menor++&lt;/font&gt;&lt;/b&gt;" style="text;strokeColor=none;align=center;fillColor=none;html=1;verticalAlign=middle;whiteSpace=wrap;rounded=0;fontFamily=Architects Daughter;fontSource=https://fonts.googleapis.com/css?family=Architects+Daughter;container=0;" vertex="1" parent="1">
          <mxGeometry x="329" y="790" width="110" height="40" as="geometry" />
        </mxCell>
      </root>
    </mxGraphModel>
  </diagram>
</mxfile>
